<svg width="28" height="28" viewBox="0 0 28 28" fill="none" xmlns="http://www.w3.org/2000/svg">
<path d="M12.668 20.6665H15.3346V15.3332H20.668V12.6665H15.3346V7.33317H12.668V12.6665H7.33464V15.3332H12.668V20.6665ZM14.0013 27.3332C12.1569 27.3332 10.4235 26.983 8.8013 26.2825C7.17908 25.583 5.76797 24.6332 4.56797 23.4332C3.36797 22.2332 2.41819 20.8221 1.71864 19.1998C1.01819 17.5776 0.667969 15.8443 0.667969 13.9998C0.667969 12.1554 1.01819 10.4221 1.71864 8.79984C2.41819 7.17762 3.36797 5.76651 4.56797 4.5665C5.76797 3.3665 7.17908 2.41628 8.8013 1.71584C10.4235 1.01628 12.1569 0.666504 14.0013 0.666504C15.8457 0.666504 17.5791 1.01628 19.2013 1.71584C20.8235 2.41628 22.2346 3.3665 23.4346 4.5665C24.6346 5.76651 25.5844 7.17762 26.284 8.79984C26.9844 10.4221 27.3346 12.1554 27.3346 13.9998C27.3346 15.8443 26.9844 17.5776 26.284 19.1998C25.5844 20.8221 24.6346 22.2332 23.4346 23.4332C22.2346 24.6332 20.8235 25.583 19.2013 26.2825C17.5791 26.983 15.8457 27.3332 14.0013 27.3332ZM14.0013 24.6665C16.9791 24.6665 19.5013 23.6332 21.568 21.5665C23.6346 19.4998 24.668 16.9776 24.668 13.9998C24.668 11.0221 23.6346 8.49984 21.568 6.43317C19.5013 4.3665 16.9791 3.33317 14.0013 3.33317C11.0235 3.33317 8.5013 4.3665 6.43464 6.43317C4.36797 8.49984 3.33464 11.0221 3.33464 13.9998C3.33464 16.9776 4.36797 19.4998 6.43464 21.5665C8.5013 23.6332 11.0235 24.6665 14.0013 24.6665Z" fill="white" fill-opacity="0.5"/>
</svg>
