<svg width="30" height="30" viewBox="0 0 30 30" fill="none" xmlns="http://www.w3.org/2000/svg">
<path fill-rule="evenodd" clip-rule="evenodd" d="M3.69922 15.0002C3.69922 9.3302 8.11922 3.7002 14.9992 3.7002C20.5552 3.7002 23.3032 7.8122 24.4732 10.0002H20.9992C20.734 10.0002 20.4796 10.1056 20.2921 10.2931C20.1046 10.4806 19.9992 10.735 19.9992 11.0002C19.9992 11.2654 20.1046 11.5198 20.2921 11.7073C20.4796 11.8948 20.734 12.0002 20.9992 12.0002H26.9992C27.2644 12.0002 27.5188 11.8948 27.7063 11.7073C27.8939 11.5198 27.9992 11.2654 27.9992 11.0002V5.0002C27.9992 4.73498 27.8939 4.48063 27.7063 4.29309C27.5188 4.10555 27.2644 4.0002 26.9992 4.0002C26.734 4.0002 26.4796 4.10555 26.2921 4.29309C26.1046 4.48063 25.9992 4.73498 25.9992 5.0002V8.6262C24.5912 6.1422 21.3312 1.7002 14.9992 1.7002C6.87322 1.7002 1.69922 8.3702 1.69922 15.0002C1.69922 21.6302 6.87322 28.3002 14.9992 28.3002C18.8872 28.3002 22.1232 26.7602 24.4272 24.4162C25.6498 23.1692 26.6196 21.6975 27.2832 20.0822C27.3331 19.9607 27.3586 19.8306 27.3582 19.6993C27.3578 19.568 27.3316 19.438 27.281 19.3168C27.2304 19.1956 27.1564 19.0856 27.0633 18.993C26.9701 18.9004 26.8597 18.8271 26.7382 18.7772C26.6167 18.7273 26.4866 18.7018 26.3553 18.7022C26.224 18.7026 26.094 18.7288 25.9728 18.7794C25.8517 18.83 25.7416 18.904 25.649 18.9971C25.5565 19.0903 25.4831 19.2007 25.4332 19.3222C24.8681 20.6981 24.0422 21.9518 23.0012 23.0142C21.0592 24.9942 18.3292 26.3002 14.9992 26.3002C8.11922 26.3002 3.69922 20.6702 3.69922 15.0002Z" fill="white" fill-opacity="0.5"/>
</svg>
